<?xml version="1.0" encoding="UTF-8" standalone="no"?>
<!-- Created with Inkscape (http://www.inkscape.org/) -->

<svg
   xmlns:dc="http://purl.org/dc/elements/1.1/"
   xmlns:cc="http://creativecommons.org/ns#"
   xmlns:rdf="http://www.w3.org/1999/02/22-rdf-syntax-ns#"
   xmlns:svg="http://www.w3.org/2000/svg"
   xmlns="http://www.w3.org/2000/svg"
   xmlns:sodipodi="http://sodipodi.sourceforge.net/DTD/sodipodi-0.dtd"
   xmlns:inkscape="http://www.inkscape.org/namespaces/inkscape"
   id="svg3336"
   version="1.1"
   inkscape:version="0.91 r13725"
   xml:space="preserve"
   width="744.09448"
   height="1052.3622"
   viewBox="0 0 744.09448 1052.3622"
   sodipodi:docname="Faceplate Template.svg"><metadata
     id="metadata3342"><rdf:RDF><cc:Work
         rdf:about=""><dc:format>image/svg+xml</dc:format><dc:type
           rdf:resource="http://purl.org/dc/dcmitype/StillImage" /><dc:title /></cc:Work></rdf:RDF></metadata><defs
     id="defs3340" /><sodipodi:namedview
     pagecolor="#ffffff"
     bordercolor="#666666"
     borderopacity="1"
     objecttolerance="10"
     gridtolerance="10"
     guidetolerance="10"
     inkscape:pageopacity="0"
     inkscape:pageshadow="2"
     inkscape:window-width="1920"
     inkscape:window-height="1027"
     id="namedview3338"
     showgrid="false"
     inkscape:zoom="1.6306173"
     inkscape:cx="454.82844"
     inkscape:cy="461.79347"
     inkscape:window-x="-8"
     inkscape:window-y="-8"
     inkscape:window-maximized="1"
     inkscape:current-layer="g3346" /><g
     id="g3344"
     inkscape:groupmode="layer"
     inkscape:label="drawing"
     transform="matrix(1.25,0,0,-1.25,0,1052.3622)"><g
       id="g3346"
       transform="translate(2.0814893,4.1629787)"><g
         id="g3348"
         transform="matrix(0.80194484,0,0,-1.1222287,0.04907225,880.76287)"><path
           d="m 259.717,318.188 228.859,0 0,215.402 -228.859,0 0,-215.402 z"
           style="fill:none;stroke:#000000;stroke-width:0.565355;stroke-linecap:butt;stroke-linejoin:miter;stroke-miterlimit:4;stroke-dasharray:none;stroke-opacity:1"
           id="path3350"
           inkscape:connector-curvature="0" /></g><g
         id="g3352"
         transform="matrix(1,0,0,-1,-1.4430248,840.4755)"><path
           d="m 226.301,486.715 39.688,0 0,39.688 -39.688,0 0,-39.688 z"
           style="fill:none;stroke:#000000;stroke-width:0.56692898;stroke-linecap:butt;stroke-linejoin:miter;stroke-miterlimit:4;stroke-dasharray:none;stroke-opacity:1"
           id="path3354"
           inkscape:connector-curvature="0" /></g><g
         id="g3356"
         transform="matrix(1,0,0,-1,0,840.4755)"><path
           d="m 280.301,486.715 39.688,0 0,39.688 -39.688,0 0,-39.688 z"
           style="fill:none;stroke:#000000;stroke-width:0.56692898;stroke-linecap:butt;stroke-linejoin:miter;stroke-miterlimit:4;stroke-dasharray:none;stroke-opacity:1"
           id="path3358"
           inkscape:connector-curvature="0" /></g><g
         id="g3360"
         transform="matrix(1,0,0,-1,1.4369752,840.4755)"><path
           d="m 334.301,486.715 39.688,0 0,39.688 -39.688,0 0,-39.688 z"
           style="fill:none;stroke:#000000;stroke-width:0.56692898;stroke-linecap:butt;stroke-linejoin:miter;stroke-miterlimit:4;stroke-dasharray:none;stroke-opacity:1"
           id="path3362"
           inkscape:connector-curvature="0" /></g><g
         id="g3364"
         transform="matrix(1,0,0,-1,-1.4430248,841.88977)"><path
           d="m 226.301,432.715 39.688,0 0,39.688 -39.688,0 0,-39.688 z"
           style="fill:none;stroke:#000000;stroke-width:0.56692898;stroke-linecap:butt;stroke-linejoin:miter;stroke-miterlimit:4;stroke-dasharray:none;stroke-opacity:1"
           id="path3366"
           inkscape:connector-curvature="0" /></g><g
         id="g3368"
         transform="matrix(1,0,0,-1,0,841.88977)"><path
           d="m 280.301,432.715 39.688,0 0,39.688 -39.688,0 0,-39.688 z"
           style="fill:none;stroke:#000000;stroke-width:0.56692898;stroke-linecap:butt;stroke-linejoin:miter;stroke-miterlimit:4;stroke-dasharray:none;stroke-opacity:1"
           id="path3370"
           inkscape:connector-curvature="0" /></g><g
         id="g3372"
         transform="matrix(1,0,0,-1,1.4369752,841.88977)"><path
           d="m 334.301,432.715 39.688,0 0,39.688 -39.688,0 0,-39.688 z"
           style="fill:none;stroke:#000000;stroke-width:0.56692898;stroke-linecap:butt;stroke-linejoin:miter;stroke-miterlimit:4;stroke-dasharray:none;stroke-opacity:1"
           id="path3374"
           inkscape:connector-curvature="0" /></g><g
         id="g3376"
         transform="matrix(1,0,0,-1,-1.4430248,843.3515)"><path
           d="m 226.301,378.711 39.688,0 0,39.688 -39.688,0 0,-39.688 z"
           style="fill:none;stroke:#000000;stroke-width:0.56692898;stroke-linecap:butt;stroke-linejoin:miter;stroke-miterlimit:4;stroke-dasharray:none;stroke-opacity:1"
           id="path3378"
           inkscape:connector-curvature="0" /></g><g
         id="g3380"
         transform="matrix(1,0,0,-1,0,843.3515)"><path
           d="m 280.301,378.711 39.688,0 0,39.688 -39.688,0 0,-39.688 z"
           style="fill:none;stroke:#000000;stroke-width:0.56692898;stroke-linecap:butt;stroke-linejoin:miter;stroke-miterlimit:4;stroke-dasharray:none;stroke-opacity:1"
           id="path3382"
           inkscape:connector-curvature="0" /></g><g
         id="g3384"
         transform="matrix(1,0,0,-1,1.4369752,843.3515)"><path
           d="m 334.301,378.711 39.688,0 0,39.688 -39.688,0 0,-39.688 z"
           style="fill:none;stroke:#000000;stroke-width:0.56692898;stroke-linecap:butt;stroke-linejoin:miter;stroke-miterlimit:4;stroke-dasharray:none;stroke-opacity:1"
           id="path3386"
           inkscape:connector-curvature="0" /></g><g
         id="g3388"
         transform="matrix(1,0,0,-1,0.7215107,841.88977)"><path
           d="m 362.453,353.285 -126,0"
           style="fill:none;stroke:#000000;stroke-width:1.375103;stroke-linecap:butt;stroke-linejoin:miter;stroke-miterlimit:4;stroke-dasharray:none;stroke-opacity:1"
           id="path3390"
           inkscape:connector-curvature="0" /></g><g
         id="g3392"
         transform="matrix(1,0,0,-1,0.2605107,841.88977)"><path
           d="m 391.5,356.469 -183.602,0"
           style="fill:none;stroke:#000000;stroke-width:1.59611499;stroke-linecap:butt;stroke-linejoin:miter;stroke-miterlimit:4;stroke-dasharray:none;stroke-opacity:1"
           id="path3394"
           inkscape:connector-curvature="0" /></g><path
         style="fill:none;fill-rule:evenodd;stroke:#000000;stroke-width:0.62957418px;stroke-linecap:butt;stroke-linejoin:miter;stroke-opacity:1"
         d="m 237.4948,523.8415 0,-37.81372"
         id="path3359"
         inkscape:connector-curvature="0" /><path
         style="fill:none;fill-rule:evenodd;stroke:#000000;stroke-width:0.62957418px;stroke-linecap:butt;stroke-linejoin:miter;stroke-opacity:1"
         d="m 362.88723,523.50137 0,-37.81372"
         id="path3359-4"
         inkscape:connector-curvature="0" /></g></g></svg>