<?xml version="1.0" encoding="utf-8"?>
<!-- Generator: Adobe Illustrator 17.0.0, SVG Export Plug-In . SVG Version: 6.00 Build 0)  -->
<!DOCTYPE svg PUBLIC "-//W3C//DTD SVG 1.1//EN" "http://www.w3.org/Graphics/SVG/1.1/DTD/svg11.dtd">
<svg version="1.1"
	 id="svg3336" xmlns:dc="http://purl.org/dc/elements/1.1/" xmlns:cc="http://creativecommons.org/ns#" xmlns:inkscape="http://www.inkscape.org/namespaces/inkscape" xmlns:svg="http://www.w3.org/2000/svg" xmlns:rdf="http://www.w3.org/1999/02/22-rdf-syntax-ns#" xmlns:sodipodi="http://sodipodi.sourceforge.net/DTD/sodipodi-0.dtd" inkscape:export-ydpi="135.39999" inkscape:export-xdpi="135.39999" sodipodi:docname="Faceplate Template.svg" inkscape:export-filename="C:\Users\michael\Desktop\Faceplate Template.png" inkscape:version="0.91 r13725"
	 xmlns="http://www.w3.org/2000/svg" xmlns:xlink="http://www.w3.org/1999/xlink" x="0px" y="0px" width="612px" height="792px"
	 viewBox="0 0 612 792" enable-background="new 0 0 612 792" xml:space="preserve">
<g id="g3348" transform="matrix(0.94193074,0,0,-0.9999957,-162.52067,1003.5706)">
	<path id="path3350" inkscape:connector-curvature="0" fill="none" stroke="#000000" stroke-width="0.5654" d="M230.479,911.571
		h200.652v-189H230.479L230.479,911.571L230.479,911.571z"/>
</g>
<g id="g3376" transform="matrix(1,0,0,-1,-111.46611,1031.3727)">
	<path id="path3378" inkscape:connector-curvature="0" fill="none" stroke="#000000" stroke-width="0.5669" d="M185.476,919.851
		h39.688v-39.688h-39.688L185.476,919.851L185.476,919.851z"/>
</g>
<g id="g3711" transform="translate(-110.02309,188.02115)">
	<g id="g3380" transform="matrix(1,0,0,-1,0,843.3515)">
		<path id="path3382" inkscape:connector-curvature="0" fill="none" stroke="#000000" stroke-width="0.5669" d="M239.476,919.851
			h39.688v-39.688h-39.688V919.851z"/>
	</g>
</g>
<g id="g3723" transform="translate(-110.02309,188.02115)">
	<g id="g3364" transform="matrix(1,0,0,-1,-1.4430248,841.88977)">
		<path id="path3366" inkscape:connector-curvature="0" fill="none" stroke="#000000" stroke-width="0.5669" d="M185.476,862.923
			h39.688v-39.688h-39.688L185.476,862.923L185.476,862.923z"/>
	</g>
</g>
<g id="g3729" transform="translate(-110.02309,188.02115)">
	<g id="g3368" transform="matrix(1,0,0,-1,0,841.88977)">
		<path id="path3370" inkscape:connector-curvature="0" fill="none" stroke="#000000" stroke-width="0.5669" d="M239.476,862.923
			h39.688v-39.688h-39.688V862.923z"/>
	</g>
</g>
<g id="g3735" transform="translate(-110.02309,188.02115)">
	<g id="g3372" transform="matrix(1,0,0,-1,1.4369752,841.88977)">
		<path id="path3374" inkscape:connector-curvature="0" fill="none" stroke="#000000" stroke-width="0.5669" d="M293.476,862.923
			h39.688v-39.688h-39.688V862.923z"/>
	</g>
</g>
<g id="g3360" transform="matrix(1,0,0,-1,1.4369752,840.4755)">
	<path id="path3362" inkscape:connector-curvature="0" fill="none" stroke="#000000" stroke-width="0.5669" d="M183.453,618.074
		h39.688v-39.688h-39.688V618.074L183.453,618.074z"/>
</g>
<g id="g3356" transform="matrix(1,0,0,-1,0,840.4755)">
	<path id="path3358" inkscape:connector-curvature="0" fill="none" stroke="#000000" stroke-width="0.5669" d="M129.453,618.074
		h39.688v-39.688h-39.688V618.074L129.453,618.074z"/>
</g>
<g id="g3352" transform="matrix(1,0,0,-1,-1.4430248,840.4755)">
	<path id="path3354" inkscape:connector-curvature="0" fill="none" stroke="#000000" stroke-width="0.5669" d="M75.453,618.074
		h39.688v-39.688H75.453L75.453,618.074L75.453,618.074z"/>
</g>
<line fill="none" stroke="#000000" stroke-width="0.667" x1="41.075" y1="294.5" x2="41.34" y2="294.446"/>
<g>
	<path id="path3580-26" inkscape:connector-curvature="0" fill="none" stroke="#000000" stroke-width="0.856" d="M74.054,242.246
		h39.6"/>
	<path id="path3580-26_7_" inkscape:connector-curvature="0" fill="none" stroke="#000000" stroke-width="0.856" d="M93.854,262.046
		v-39.6"/>
</g>
<g>
	<path id="path3580-26_2_" inkscape:connector-curvature="0" fill="none" stroke="#000000" stroke-width="0.856" d="
		M129.497,242.246h39.6"/>
	<path id="path3580-26_1_" inkscape:connector-curvature="0" fill="none" stroke="#000000" stroke-width="0.856" d="
		M149.297,262.046v-39.6"/>
</g>
<g>
	<path id="path3580-26_4_" inkscape:connector-curvature="0" fill="none" stroke="#000000" stroke-width="0.856" d="
		M184.934,242.246h39.6"/>
	<path id="path3580-26_3_" inkscape:connector-curvature="0" fill="none" stroke="#000000" stroke-width="0.856" d="
		M204.734,262.046v-39.6"/>
</g>
<g>
	<path id="path3580-26_6_" inkscape:connector-curvature="0" fill="none" stroke="#000000" stroke-width="0.856" d="
		M184.934,186.832h39.6"/>
	<path id="path3580-26_5_" inkscape:connector-curvature="0" fill="none" stroke="#000000" stroke-width="0.856" d="
		M204.734,206.632v-39.6"/>
</g>
<g>
	<path id="path3580-26_9_" inkscape:connector-curvature="0" fill="none" stroke="#000000" stroke-width="0.856" d="
		M129.497,186.832h39.6"/>
	<path id="path3580-26_8_" inkscape:connector-curvature="0" fill="none" stroke="#000000" stroke-width="0.856" d="
		M149.297,206.632v-39.6"/>
</g>
<g>
	<path id="path3580-26_11_" inkscape:connector-curvature="0" fill="none" stroke="#000000" stroke-width="0.856" d="
		M74.054,186.832h39.6"/>
	<path id="path3580-26_10_" inkscape:connector-curvature="0" fill="none" stroke="#000000" stroke-width="0.856" d="
		M93.854,206.632v-39.6"/>
</g>
<g>
	<path id="path3580-26_13_" inkscape:connector-curvature="0" fill="none" stroke="#000000" stroke-width="0.856" d="
		M74.054,186.832h39.6"/>
	<path id="path3580-26_12_" inkscape:connector-curvature="0" fill="none" stroke="#000000" stroke-width="0.856" d="
		M93.854,206.632v-39.6"/>
</g>
<g>
	<path id="path3580-26_15_" inkscape:connector-curvature="0" fill="none" stroke="#000000" stroke-width="0.856" d="
		M74.054,131.366h39.6"/>
	<path id="path3580-26_14_" inkscape:connector-curvature="0" fill="none" stroke="#000000" stroke-width="0.856" d="
		M93.854,151.166v-39.6"/>
</g>
<g>
	<path id="path3580-26_17_" inkscape:connector-curvature="0" fill="none" stroke="#000000" stroke-width="0.856" d="
		M129.497,131.366h39.6"/>
	<path id="path3580-26_16_" inkscape:connector-curvature="0" fill="none" stroke="#000000" stroke-width="0.856" d="
		M149.297,151.166v-39.6"/>
</g>
<g>
	<g id="g3717" transform="translate(-110.02309,188.02115)">
		<g id="g3384" transform="matrix(1,0,0,-1,1.4369752,843.3515)">
			<path id="path3386" inkscape:connector-curvature="0" fill="none" stroke="#000000" stroke-width="0.5669" d="M293.476,919.851
				h39.688v-39.688h-39.688V919.851z"/>
		</g>
	</g>
	<g>
		<path id="path3580-26_19_" inkscape:connector-curvature="0" fill="none" stroke="#000000" stroke-width="0.856" d="
			M184.934,131.366h39.6"/>
		<path id="path3580-26_18_" inkscape:connector-curvature="0" fill="none" stroke="#000000" stroke-width="0.856" d="
			M204.734,151.166v-39.6"/>
	</g>
</g>
<polyline fill="none" stroke="#000000" stroke-width="0.5654" points="54.575,92 29.375,92 29.375,281 54.575,281 "/>
<polyline fill="none" stroke="#000000" stroke-width="0.5654" points="243.575,92 268.775,92 268.775,281 243.575,281 "/>
<polyline fill="none" stroke="#000000" stroke-width="0.5654" points="54.575,281 54.575,306.2 243.575,306.2 243.575,281 "/>
<polyline fill="none" stroke="#000000" stroke-width="0.5654" points="54.575,92 54.575,20 243.575,20 243.575,92 "/>
<path fill="none" stroke="#000000" stroke-width="0.5654" d="M371,407.5"/>
</svg>
